<svg width="48" height="48" viewBox="0 0 48 48" fill="none" xmlns="http://www.w3.org/2000/svg">
<rect width="48" height="48" rx="24" fill="#0A1442"/>
<path d="M34.1818 17.3595C34.1818 11.9891 29.8093 7.64 24.4302 7.67798C19.2393 7.71464 14.9671 11.8936 14.8222 17.0826C14.7588 19.3525 15.4771 21.4522 16.7274 23.1326C18.5221 25.5444 19.5368 28.4467 19.5368 31.4531V31.7249H29.4633V31.4581C29.4633 28.4926 30.3978 25.5877 32.1982 23.2313C33.4426 21.6027 34.1818 19.5676 34.1818 17.3595Z" fill="#FFF8E6"/>
<path d="M30.372 31.7245H18.6281V35.2197C18.6281 36.9956 20.0677 38.4354 21.8438 38.4354H27.1565C28.9324 38.4354 30.3722 36.9957 30.3722 35.2197L30.372 31.7245Z" fill="#B4C2BE"/>
<path d="M24.5 40.323C23.4962 40.323 22.6825 39.5093 22.6825 38.5055V38.4355H26.3175V38.5055C26.3176 39.5092 25.5038 40.323 24.5 40.323Z" fill="#8FA59F"/>
<path d="M34.8591 17.359C34.8591 14.5781 33.7723 11.9675 31.7989 10.0081C29.8436 8.06655 27.2544 7 24.5008 7C24.4757 7 24.4504 7.00013 24.4253 7.00027C21.7381 7.01926 19.1935 8.07166 17.2602 9.96371C15.3263 11.8562 14.2201 14.3775 14.1451 17.0633C14.0794 19.4171 14.7844 21.6555 16.1841 23.5364C17.8505 25.776 18.7683 28.3647 18.8525 31.0472H18.6281C18.2541 31.0472 17.9508 31.3504 17.9508 31.7244V35.2197C17.9508 37.3662 19.6971 39.1126 21.8437 39.1126H22.0805C22.3523 40.1956 23.3339 41 24.5 41C25.6662 41 26.6478 40.1956 26.9198 39.1126H27.1565C29.303 39.1126 31.0494 37.3662 31.0494 35.2197V31.7244C31.0494 31.3504 30.7462 31.0472 30.3722 31.0472H30.1477C30.2318 28.3429 31.1431 25.7275 32.7365 23.6421C34.125 21.8245 34.8591 19.6519 34.8591 17.359ZM24.5 39.6454C24.0945 39.6454 23.7376 39.4325 23.5354 39.1126H25.4646C25.2625 39.4325 24.9056 39.6454 24.5 39.6454ZM21.8437 37.758C21.1447 37.758 20.511 37.474 20.0515 37.0154H26.5274C26.9014 37.0154 27.2046 36.7121 27.2046 36.3381C27.2046 35.9641 26.9014 35.6609 26.5274 35.6609H19.3445C19.3193 35.5175 19.3053 35.3703 19.3053 35.2197V34.7086H24.6399C25.0139 34.7086 25.3172 34.4053 25.3172 34.0313C25.3172 33.6573 25.0139 33.354 24.6399 33.354H19.3053V32.4017H29.6947V35.2197C29.6947 36.6193 28.556 37.758 27.1564 37.758H21.8436L21.8437 37.758ZM28.7917 31.0472H20.2084C20.1241 28.0716 19.1128 25.2033 17.2708 22.7278C16.0546 21.0934 15.442 19.1478 15.4992 17.1011C15.6329 12.3123 19.6414 8.38869 24.4349 8.35489C24.4569 8.35469 24.4786 8.35462 24.5005 8.35462C26.8941 8.35462 29.145 9.28179 30.8446 10.9693C32.5598 12.6726 33.5045 14.9418 33.5045 17.359C33.5045 19.3521 32.8667 21.2404 31.6601 22.8196C29.8875 25.1395 28.8765 28.0469 28.7917 31.0472Z" fill="#FFBA00"/>
<path d="M27.8555 33.3535H27.4361C27.0621 33.3535 26.7588 33.6568 26.7588 34.0308C26.7588 34.4048 27.0621 34.7081 27.4361 34.7081H27.8555C28.2295 34.7081 28.5328 34.4048 28.5328 34.0308C28.5328 33.6568 28.2295 33.3535 27.8555 33.3535Z" fill="#FFBA00"/>
<path d="M25.1063 18.5402V14.6557C26.3501 14.7238 26.8271 15.2861 27.1849 15.2861C27.5767 15.2861 27.7982 14.7749 27.7982 14.5023C27.7982 13.8208 26.3159 13.4289 25.1063 13.3778V12.9007C25.1063 12.7133 24.8847 12.543 24.6633 12.543C24.4078 12.543 24.2203 12.7134 24.2203 12.9007V13.4118C22.687 13.5482 21.0684 14.2978 21.0684 16.4445C21.0684 18.6253 22.704 19.1876 24.2203 19.7158V24.2478C22.2781 24.1626 21.8691 22.8847 21.3921 22.8847C21.0684 22.8847 20.7617 23.3277 20.7617 23.6685C20.7617 24.3841 22.0906 25.5597 24.2203 25.5938V26.156C24.2203 26.3434 24.4077 26.5138 24.6633 26.5138C24.8847 26.5138 25.1062 26.3434 25.1062 26.156V25.5427C26.8781 25.3042 28.1048 24.1967 28.1048 22.1181C28.105 19.784 26.5546 19.0684 25.1063 18.5402ZM24.2886 18.2506C23.2833 17.8758 22.4315 17.4839 22.4315 16.3083C22.4315 15.2178 23.2663 14.7749 24.2886 14.6727V18.2506ZM25.0382 24.2138V20.0395C25.9753 20.4314 26.7419 20.9596 26.7419 22.2544C26.7419 23.379 26.1116 24.0434 25.0382 24.2138Z" fill="#0A1442"/>
</svg>
