<svg width="100" height="417" viewBox="0 0 100 417" fill="none" xmlns="http://www.w3.org/2000/svg">
<circle cx="20" cy="20" r="10" fill="#091547" fill-opacity="0.15"/>
<circle cx="50" cy="20" r="10" fill="#091547" fill-opacity="0.15"/>
<circle cx="80" cy="20" r="10" fill="#091547" fill-opacity="0.15"/>
<circle cx="20" cy="53" r="10" fill="#091547" fill-opacity="0.15"/>
<circle cx="50" cy="53" r="10" fill="#091547" fill-opacity="0.15"/>
<circle cx="80" cy="53" r="10" fill="#091547" fill-opacity="0.15"/>
<circle cx="20" cy="86" r="10" fill="#091547" fill-opacity="0.15"/>
<circle cx="50" cy="86" r="10" fill="#091547" fill-opacity="0.15"/>
<circle cx="80" cy="86" r="10" fill="#091547" fill-opacity="0.15"/>
<circle cx="20" cy="119" r="10" fill="#091547" fill-opacity="0.15"/>
<circle cx="50" cy="119" r="10" fill="#091547" fill-opacity="0.15"/>
<circle cx="80" cy="119" r="10" fill="#091547" fill-opacity="0.15"/>
<circle cx="20" cy="159" r="10" fill="#091547" fill-opacity="0.15"/>
<circle cx="50" cy="159" r="10" fill="#091547" fill-opacity="0.15"/>
<circle cx="80" cy="159" r="10" fill="#091547" fill-opacity="0.15"/>
<circle cx="20" cy="192" r="10" fill="#091547" fill-opacity="0.15"/>
<circle cx="50" cy="192" r="10" fill="#091547" fill-opacity="0.15"/>
<circle cx="80" cy="192" r="10" fill="#091547" fill-opacity="0.15"/>
<circle cx="20" cy="225" r="10" fill="#091547" fill-opacity="0.15"/>
<circle cx="50" cy="225" r="10" fill="#091547" fill-opacity="0.15"/>
<circle cx="80" cy="225" r="10" fill="#091547" fill-opacity="0.15"/>
<circle cx="20" cy="258" r="10" fill="#091547" fill-opacity="0.15"/>
<circle cx="50" cy="258" r="10" fill="#091547" fill-opacity="0.15"/>
<circle cx="80" cy="258" r="10" fill="#091547" fill-opacity="0.15"/>
<circle cx="20" cy="298" r="10" fill="#091547" fill-opacity="0.15"/>
<circle cx="50" cy="298" r="10" fill="#091547" fill-opacity="0.15"/>
<circle cx="80" cy="298" r="10" fill="#091547" fill-opacity="0.15"/>
<circle cx="20" cy="331" r="10" fill="#091547" fill-opacity="0.15"/>
<circle cx="50" cy="331" r="10" fill="#091547" fill-opacity="0.15"/>
<circle cx="80" cy="331" r="10" fill="#091547" fill-opacity="0.15"/>
<circle cx="20" cy="364" r="10" fill="#091547" fill-opacity="0.15"/>
<circle cx="50" cy="364" r="10" fill="#091547" fill-opacity="0.15"/>
<circle cx="80" cy="364" r="10" fill="#091547" fill-opacity="0.15"/>
<circle cx="20" cy="397" r="10" fill="#091547" fill-opacity="0.15"/>
<circle cx="50" cy="397" r="10" fill="#091547" fill-opacity="0.15"/>
<circle cx="80" cy="397" r="10" fill="#091547" fill-opacity="0.15"/>
</svg>
