<svg width="48" height="48" viewBox="0 0 48 48" fill="none" xmlns="http://www.w3.org/2000/svg">
<rect width="48" height="48" rx="24" fill="#0A1442"/>
<path fill-rule="evenodd" clip-rule="evenodd" d="M9.65625 17.0432C9.65625 16.4569 10.131 15.9309 10.715 15.8686L14.1719 15.5L17.6288 15.8686C18.2135 15.931 18.6875 16.4529 18.6875 17.0432V18.6875H9.65625V17.0432Z" fill="#BCE4C5"/>
<path fill-rule="evenodd" clip-rule="evenodd" d="M12.5781 13.903C11.7785 13.1581 11.25 11.9519 11.25 10.9413C11.25 9.35139 12.5582 8.0625 14.1719 8.0625C15.7856 8.0625 17.0938 9.35139 17.0938 10.9413C17.0938 11.9519 16.5652 13.1581 15.7656 13.903V15.6521C15.7656 15.6521 14.6852 16.0312 14.1719 16.0312C13.6585 16.0312 12.5781 15.6521 12.5781 15.6521V13.903Z" fill="#00C7BE"/>
<path fill-rule="evenodd" clip-rule="evenodd" d="M28.7812 36.6995C28.7812 36.1131 29.256 35.5871 29.84 35.5249L33.2969 35.1562L36.7538 35.5249C37.3385 35.5872 37.8125 36.1091 37.8125 36.6995V38.3438H28.7812V36.6995Z" fill="#007AFF" fill-opacity="0.15"/>
<path fill-rule="evenodd" clip-rule="evenodd" d="M31.7031 33.5592C30.9035 32.8144 30.375 31.6082 30.375 30.5976C30.375 29.0076 31.6832 27.7188 33.2969 27.7188C34.9106 27.7188 36.2188 29.0076 36.2188 30.5976C36.2188 31.6082 35.6902 32.8144 34.8906 33.5592V35.3084C34.8906 35.3084 33.8102 35.6875 33.2969 35.6875C32.7835 35.6875 31.7031 35.3084 31.7031 35.3084V33.5592Z" fill="#00C7BE"/>
<path d="M11.25 23.7344C11.25 30.9227 17.0773 36.75 24.2656 36.75M37.2812 23.7344C37.2812 16.546 31.454 10.7188 24.2656 10.7188" stroke="#FFF8E6" stroke-width="1.59375" stroke-linecap="round"/>
<path d="M26.3093 13.9822L24 10.8978L26.9814 8.59375" stroke="#FFF8E6" stroke-width="1.59375" stroke-linecap="round" stroke-linejoin="round"/>
<path d="M22.0158 33.5627L24.3251 36.6471L21.3438 38.9512" stroke="#FFF8E6" stroke-width="1.59375" stroke-linecap="round" stroke-linejoin="round"/>
</svg>
