<svg width="269" height="216" viewBox="0 0 269 216" fill="none" xmlns="http://www.w3.org/2000/svg">
<rect width="5.37243" height="6.26937" rx="1" transform="matrix(0.98191 -0.189347 0.189251 0.981929 138.637 31.9349)" fill="#44C9C4"/>
<rect width="5.37271" height="6.26903" rx="1" transform="matrix(0.873803 0.486281 -0.486085 0.873912 223.045 165.908)" fill="#44C9C4"/>
<rect width="5.37271" height="6.26903" rx="1" transform="matrix(0.873803 0.486281 -0.486085 0.873912 72.2627 207.449)" fill="#44C9C4"/>
<rect x="102.846" y="49.5461" width="2.47877" height="2.89266" rx="1" fill="#44C9C4"/>
<rect width="4.56527" height="5.32698" rx="1" transform="matrix(0.890958 0.454086 -0.453895 0.891055 219.339 29.0793)" fill="#44C9C4"/>
<rect x="212.282" y="52.4723" width="2.47877" height="2.89266" rx="1" fill="#44C9C4"/>
<rect x="204.968" y="161.142" width="2.47877" height="2.89266" rx="1" fill="#44C9C4"/>
<rect x="224.817" y="119.346" width="2.47877" height="2.89266" rx="1" fill="#44C9C4"/>
<rect x="253.022" y="81.7299" width="2.47877" height="2.89266" rx="1" fill="#44C9C4"/>
<rect x="230.039" y="148.603" width="2.47877" height="2.89266" rx="1" fill="#44C9C4"/>
<rect x="178.996" y="203.797" width="2.47877" height="2.89266" rx="1" fill="#44C9C4"/>
<rect width="3.53959" height="4.13029" rx="1" transform="matrix(0.922838 -0.385187 0.385014 0.922911 74.2629 39.1182)" fill="#44C9C4"/>
<rect width="3.53954" height="4.13036" rx="1" transform="matrix(0.954493 0.298234 -0.298091 0.954538 7.03149 186.693)" fill="#44C9C4"/>
<rect width="1.34046" height="1.56421" rx="0.670232" transform="matrix(0.954493 0.298234 -0.298091 0.954538 63.3667 63.9662)" fill="#44C9C4"/>
<rect width="1.34046" height="1.56421" rx="0.670232" transform="matrix(0.954493 0.298234 -0.298091 0.954538 200.212 72.3252)" fill="#44C9C4"/>
<rect width="1.34046" height="1.56421" rx="0.670232" transform="matrix(0.954493 0.298234 -0.298091 0.954538 255.576 96.358)" fill="#44C9C4"/>
<rect width="1.34046" height="1.56421" rx="0.670232" transform="matrix(0.954493 0.298234 -0.298091 0.954538 74.4551 161.525)" fill="#44C9C4"/>
<rect width="1.34046" height="1.56421" rx="0.670232" transform="matrix(0.954493 0.298234 -0.298091 0.954538 25.7595 14.8557)" fill="#44C9C4"/>
<rect width="2.54543" height="2.97031" rx="1" transform="matrix(0.954493 0.298234 -0.298091 0.954538 35.5786 115.914)" fill="#44C9C4"/>
<rect width="2.54543" height="2.97031" rx="1" transform="matrix(0.954493 0.298234 -0.298091 0.954538 38.8633 153.705)" fill="#44C9C4"/>
<rect width="2.54543" height="2.97031" rx="1" transform="matrix(0.954493 0.298234 -0.298091 0.954538 113.916 190.147)" fill="#44C9C4"/>
<rect width="3.53954" height="4.13036" rx="1" transform="matrix(0.954493 0.298234 -0.298091 0.954538 157.101 13.811)" fill="#44C9C4"/>
<rect width="4.56001" height="5.32116" rx="1" transform="matrix(0.954493 0.298234 -0.298091 0.954538 48.8142 49.3372)" fill="#44C9C4"/>
<rect width="4.5611" height="5.31988" rx="1" transform="matrix(-0.0462226 -0.998931 0.99893 -0.0462469 132.261 4.80225)" fill="#44C9C4"/>
<rect width="7.0324" height="8.20449" rx="1" transform="matrix(-0.710445 0.703753 -0.703565 -0.710631 10.8828 93.8333)" fill="#44C9C4"/>
<rect width="7.03156" height="8.20547" rx="1" transform="matrix(0.979084 -0.203456 0.203353 0.979106 260.333 195.945)" fill="#44C9C4"/>
</svg>
