<svg width="40" height="40" viewBox="0 0 40 40" fill="none" xmlns="http://www.w3.org/2000/svg">
<circle cx="20" cy="20" r="20" fill="#007AFF"/>
<path d="M19.9997 12.0856C22.332 12.0856 22.6082 12.0952 23.5295 12.1417C24.0835 12.1492 24.6321 12.2616 25.1517 12.474C25.5285 12.6346 25.8707 12.8806 26.1562 13.1962C26.4418 13.5117 26.6644 13.8899 26.8097 14.3063C27.0019 14.8805 27.1036 15.4868 27.1104 16.099C27.152 17.1172 27.1612 17.4224 27.1612 19.9998C27.1612 22.5772 27.1524 22.8824 27.1104 23.9006C27.1036 24.5128 27.0019 25.1191 26.8097 25.6933C26.6644 26.1097 26.4418 26.4878 26.1562 26.8034C25.8707 27.119 25.5285 27.365 25.1517 27.5256C24.6321 27.738 24.0835 27.8504 23.5295 27.8579C22.6086 27.9039 22.3324 27.914 19.9997 27.914C17.6671 27.914 17.3909 27.9043 16.47 27.8579C15.916 27.8504 15.3673 27.738 14.8478 27.5256C14.471 27.365 14.1288 27.119 13.8433 26.8034C13.5577 26.4878 13.3351 26.1097 13.1898 25.6933C12.9976 25.1191 12.8958 24.5128 12.8891 23.9006C12.8475 22.8824 12.8383 22.5772 12.8383 19.9998C12.8383 17.4224 12.847 17.1172 12.8891 16.099C12.8958 15.4868 12.9976 14.8805 13.1898 14.3063C13.3351 13.8899 13.5577 13.5117 13.8433 13.1962C14.1288 12.8806 14.471 12.6346 14.8478 12.474C15.3673 12.2616 15.916 12.1492 16.47 12.1417C17.3913 12.0957 17.6675 12.0856 19.9997 12.0856ZM19.9997 10.3462C17.6288 10.3462 17.3302 10.3572 16.3984 10.4041C15.6735 10.42 14.9562 10.5717 14.2771 10.8528C13.6945 11.0953 13.1669 11.4754 12.731 11.9665C12.2862 12.4484 11.9419 13.0319 11.7223 13.6761C11.468 14.4265 11.3308 15.2192 11.3163 16.0204C11.2748 17.0491 11.2648 17.3792 11.2648 19.9993C11.2648 22.6195 11.2748 22.9495 11.3172 23.9792C11.3316 24.7804 11.4689 25.573 11.7231 26.3235C11.9425 26.9676 12.2865 27.551 12.731 28.033C13.1672 28.5243 13.6951 28.9044 14.2779 29.1468C14.957 29.4278 15.6743 29.5795 16.3993 29.5955C17.331 29.6414 17.6284 29.6534 20.0006 29.6534C22.3727 29.6534 22.6701 29.6423 23.6019 29.5955C24.3269 29.5795 25.0441 29.4278 25.7232 29.1468C26.3033 28.8983 26.8301 28.5188 27.2698 28.0325C27.7096 27.5462 28.0527 26.9638 28.2772 26.3226C28.5315 25.5721 28.6687 24.7794 28.6831 23.9783C28.7247 22.9495 28.7347 22.6195 28.7347 19.9993C28.7347 17.3792 28.7247 17.0491 28.6823 16.0195C28.6679 15.2183 28.5306 14.4256 28.2763 13.6751C28.057 13.031 27.713 12.4476 27.2685 11.9656C26.8323 11.4744 26.3044 11.0943 25.7216 10.8518C25.0425 10.5708 24.3252 10.4191 23.6002 10.4032C22.6693 10.3572 22.3707 10.3462 19.9997 10.3462Z" fill="#091547"/>
<path d="M19.9983 15.0425C19.1111 15.0425 18.2439 15.3332 17.5062 15.8779C16.7686 16.4226 16.1937 17.1968 15.8541 18.1026C15.5146 19.0084 15.4258 20.0051 15.5989 20.9667C15.772 21.9283 16.1992 22.8115 16.8265 23.5048C17.4538 24.1981 18.2531 24.6702 19.1232 24.8615C19.9933 25.0527 20.8952 24.9546 21.7149 24.5794C22.5345 24.2042 23.2351 23.5688 23.728 22.7536C24.2209 21.9384 24.4839 20.98 24.4839 19.9996C24.4839 18.6849 24.0113 17.424 23.1701 16.4944C22.3289 15.5647 21.188 15.0425 19.9983 15.0425ZM19.9983 23.2173C19.4224 23.2173 18.8595 23.0286 18.3807 22.675C17.9019 22.3215 17.5287 21.8189 17.3083 21.231C17.0879 20.643 17.0303 19.996 17.1426 19.3719C17.2549 18.7477 17.5323 18.1743 17.9395 17.7243C18.3467 17.2743 18.8655 16.9679 19.4303 16.8437C19.9951 16.7196 20.5805 16.7833 21.1126 17.0268C21.6446 17.2704 22.0993 17.6828 22.4193 18.2119C22.7392 18.7411 22.91 19.3632 22.91 19.9996C22.91 20.853 22.6032 21.6714 22.0572 22.2749C21.5111 22.8783 20.7705 23.2173 19.9983 23.2173Z" fill="#091547"/>
<path d="M24.6615 16.0047C25.2404 16.0047 25.7097 15.4861 25.7097 14.8464C25.7097 14.2066 25.2404 13.688 24.6615 13.688C24.0826 13.688 23.6133 14.2066 23.6133 14.8464C23.6133 15.4861 24.0826 16.0047 24.6615 16.0047Z" fill="#091547"/>
</svg>
