<svg width="48" height="48" viewBox="0 0 48 48" fill="none" xmlns="http://www.w3.org/2000/svg">
<rect width="48" height="48" rx="24" fill="#0A1442"/>
<g clip-path="url(#clip0_63_1231)">
<path d="M24.2839 29.1111C26.1656 29.1111 27.691 27.5857 27.691 25.704C27.691 23.8223 26.1656 22.2969 24.2839 22.2969C22.4022 22.2969 20.8768 23.8223 20.8768 25.704C20.8768 27.5857 22.4022 29.1111 24.2839 29.1111Z" fill="#007AFF" fill-opacity="0.15"/>
<path d="M25.4196 27.9757C23.5379 27.9757 22.0125 26.4504 22.0125 24.5686C22.0125 23.9188 22.1946 23.3116 22.5102 22.7949C21.5307 23.3934 20.8768 24.4724 20.8768 25.7043C20.8768 27.586 22.4022 29.1114 24.2839 29.1114C25.5158 29.1114 26.5949 28.4575 27.1933 27.478C26.6766 27.7937 26.0695 27.9757 25.4196 27.9757Z" fill="#FFC44F"/>
<path d="M29.3946 40.4677H19.1732V32.5178C19.1732 31.2633 20.1902 30.2463 21.4447 30.2463H27.1231C28.3776 30.2463 29.3946 31.2633 29.3946 32.5178V40.4677Z" fill="#E7EBEA"/>
<path d="M23.1482 30.2461H21.4447C20.1902 30.2461 19.1733 31.263 19.1733 32.5175V40.4674H20.8768V32.5175C20.8769 31.263 21.8938 30.2461 23.1482 30.2461Z" fill="#B4C2BE"/>
<path d="M24.8518 31.9496H23.716L23.1482 30.2461H25.4196L24.8518 31.9496Z" fill="#007AFF" fill-opacity="0.15"/>
<path d="M25.4196 38.1956L24.2839 38.7634L23.1482 38.1956L23.716 31.9492H24.8518L25.4196 38.1956Z" fill="#007AFF" fill-opacity="0.15"/>
<path d="M13.4948 14.3474C15.3765 14.3474 16.9019 12.822 16.9019 10.9403C16.9019 9.05862 15.3765 7.5332 13.4948 7.5332C11.6131 7.5332 10.0877 9.05862 10.0877 10.9403C10.0877 12.822 11.6131 14.3474 13.4948 14.3474Z" fill="#007AFF" fill-opacity="0.15"/>
<path d="M14.6305 13.2101C12.7488 13.2101 11.2234 11.6847 11.2234 9.80301C11.2234 9.15322 11.4055 8.546 11.7211 8.0293C10.7415 8.62775 10.0877 9.70679 10.0877 10.9387C10.0877 12.8204 11.6131 14.3458 13.4948 14.3458C14.7267 14.3458 15.8058 13.6919 16.4042 12.7124C15.8875 13.028 15.2803 13.2101 14.6305 13.2101Z" fill="#FFC44F"/>
<path d="M18.6054 25.7035H8.38411V17.7536C8.38411 16.4991 9.40105 15.4822 10.6555 15.4822H16.334C17.5885 15.4822 18.6054 16.4991 18.6054 17.7536V25.7035Z" fill="#E7EBEA"/>
<path d="M12.3591 15.4823H10.6555C9.40105 15.4823 8.38411 16.4992 8.38411 17.7537V25.7036H10.0876V17.7537C10.0877 16.4992 11.1046 15.4823 12.3591 15.4823Z" fill="#B4C2BE"/>
<path d="M14.0626 17.1858H12.9269L12.359 15.4823H14.6305L14.0626 17.1858Z" fill="#FF8C78"/>
<path d="M14.6305 23.4318L13.4948 23.9996L12.359 23.4318L12.9269 17.1854H14.0626L14.6305 23.4318Z" fill="#FF8C78"/>
<path d="M34.5052 14.3474C36.3869 14.3474 37.9123 12.822 37.9123 10.9403C37.9123 9.05862 36.3869 7.5332 34.5052 7.5332C32.6235 7.5332 31.0981 9.05862 31.0981 10.9403C31.0981 12.822 32.6235 14.3474 34.5052 14.3474Z" fill="#007AFF" fill-opacity="0.15"/>
<path d="M35.6409 13.2101C33.7592 13.2101 32.2338 11.6847 32.2338 9.80301C32.2338 9.15322 32.4159 8.546 32.7315 8.0293C31.752 8.62775 31.0981 9.70679 31.0981 10.9387C31.0981 12.8204 32.6235 14.3458 34.5052 14.3458C35.7372 14.3458 36.8162 13.6919 37.4146 12.7124C36.8979 13.028 36.2907 13.2101 35.6409 13.2101Z" fill="#FFC44F"/>
<path d="M39.6159 25.7035H29.3946V17.7536C29.3946 16.4991 30.4115 15.4822 31.666 15.4822H37.3445C38.599 15.4822 39.6159 16.4991 39.6159 17.7536V25.7035Z" fill="#E7EBEA"/>
<path d="M33.3695 15.4823H31.666C30.4115 15.4823 29.3946 16.4992 29.3946 17.7537V25.7036H31.0981V17.7537C31.0981 16.4992 32.1151 15.4823 33.3695 15.4823Z" fill="#B4C2BE"/>
<path d="M35.073 17.1858H33.9373L33.3695 15.4823H35.6409L35.073 17.1858Z" fill="#5C7C73"/>
<path d="M35.6409 23.4318L34.5052 23.9996L33.3695 23.4318L33.9373 17.1854H35.073L35.6409 23.4318Z" fill="#5C7C73"/>
<path d="M24.284 29.6426C26.4562 29.6426 28.2235 27.8754 28.2235 25.7032C28.2235 23.5309 26.4562 21.7637 24.284 21.7637C22.1117 21.7637 20.3445 23.5309 20.3445 25.7032C20.3445 27.8754 22.1117 29.6426 24.284 29.6426ZM24.284 22.8284C25.8692 22.8284 27.1587 24.118 27.1587 25.7032C27.1587 27.2883 25.8691 28.5779 24.284 28.5779C22.6988 28.5779 21.4092 27.2883 21.4092 25.7032C21.4092 24.118 22.6988 22.8284 24.284 22.8284Z" fill="white"/>
<path d="M34.5052 14.8789C36.6774 14.8789 38.4447 13.1117 38.4447 10.9394C38.4447 8.76714 36.6775 7 34.5052 7C32.3329 7 30.5657 8.7672 30.5657 10.9395C30.5657 13.1118 32.333 14.8789 34.5052 14.8789ZM34.5052 8.06469C36.0904 8.06469 37.3799 9.3543 37.3799 10.9394C37.3799 12.5245 36.0903 13.8141 34.5052 13.8141C32.92 13.8141 31.6305 12.5245 31.6305 10.9394C31.6305 9.3543 32.9201 8.06469 34.5052 8.06469Z" fill="white"/>
<path d="M13.4948 14.8789C15.667 14.8789 17.4343 13.1117 17.4343 10.9394C17.4343 8.76714 15.667 7 13.4948 7C11.3226 7 9.5553 8.7672 9.5553 10.9395C9.5553 13.1118 11.3225 14.8789 13.4948 14.8789ZM13.4948 8.06469C15.08 8.06469 16.3695 9.3543 16.3695 10.9394C16.3695 12.5245 15.0799 13.8141 13.4948 13.8141C11.9097 13.8141 10.6201 12.5245 10.6201 10.9394C10.6201 9.3543 11.9096 8.06469 13.4948 8.06469Z" fill="white"/>
<path d="M39.6159 19.9888C39.9099 19.9888 40.1483 19.7505 40.1483 19.4564V17.7529C40.1483 16.2069 38.8905 14.9492 37.3445 14.9492H31.6661C31.493 14.9492 31.3209 14.9669 31.151 14.9987C29.1881 13.5003 26.7602 12.6777 24.284 12.6777C21.7399 12.6777 19.2634 13.5399 17.2727 15.1111C16.9726 15.0039 16.6584 14.9492 16.3341 14.9492H10.6555C9.10953 14.9492 7.85179 16.207 7.85179 17.7529V25.7028C7.85179 25.9968 8.09006 26.2352 8.38417 26.2352H13.1841C13.4029 27.328 13.7812 28.3781 14.3116 29.3626C14.4585 29.635 14.8173 29.7241 15.0753 29.5532C15.3014 29.4032 15.3774 29.0961 15.249 28.8576C14.8026 28.0291 14.4752 27.1495 14.2722 26.2352H18.6055C18.8995 26.2352 19.1379 25.9969 19.1379 25.7029V17.7529C19.1379 16.961 18.81 16.2271 18.2503 15.7054C19.996 14.4352 22.1129 13.7424 24.284 13.7424C26.357 13.7424 28.3212 14.3445 30.0137 15.4909C29.3082 16.0099 28.8623 16.8465 28.8623 17.7528V25.7027C28.8623 25.9967 29.1005 26.2351 29.3946 26.2351H34.295C33.7179 28.816 32.1365 31.1023 29.927 32.5642V32.5169C29.927 30.9709 28.6692 29.7132 27.1233 29.7132H21.4447C19.8987 29.7132 18.6409 30.971 18.6409 32.5169V32.5648C17.7715 31.9919 16.9971 31.2927 16.332 30.4771C16.1461 30.2494 15.8108 30.2152 15.5829 30.401C15.3551 30.5868 15.3211 30.9222 15.5068 31.15C16.3871 32.2293 17.4405 33.1245 18.6409 33.8153V40.4668C18.6409 40.7608 18.8792 40.9992 19.1733 40.9992H29.3946C29.6887 40.9992 29.927 40.7609 29.927 40.4668V33.8156C32.7398 32.1939 34.7448 29.4037 35.3826 26.2352H39.616C39.91 26.2352 40.1483 25.9968 40.1483 25.7028V22.2957C40.1483 22.0017 39.9101 21.7633 39.616 21.7633C39.3218 21.7633 39.0836 22.0016 39.0836 22.2957V25.1704H29.927V17.7528C29.927 16.9871 30.4395 16.3013 31.1735 16.085H31.1736C31.334 16.0378 31.4996 16.0139 31.666 16.0139H32.9858L33.3971 17.2479L32.8394 23.3832C32.8195 23.6015 32.9355 23.8096 33.1314 23.9076L34.2671 24.4754C34.4156 24.5496 34.5947 24.5496 34.7433 24.4754L35.8789 23.9076C36.0749 23.8096 36.1909 23.6014 36.1709 23.3832L35.6132 17.2479L36.0246 16.0138H37.3444C38.3034 16.0138 39.0834 16.7939 39.0834 17.7528V19.4564C39.0835 19.7504 39.3218 19.9888 39.6159 19.9888ZM13.413 17.7174H13.5765L14.0674 23.1177L13.4948 23.404L12.9222 23.1177L13.413 17.7174ZM13.8919 16.0138L13.6789 16.6526H13.3107L13.0977 16.0138H13.8919ZM18.073 25.1704H8.91648V17.7528C8.91648 16.7939 9.69656 16.0138 10.6555 16.0138H11.9754L12.3867 17.2478L11.8289 23.3832C11.8091 23.6014 11.925 23.8095 12.1209 23.9075L13.2566 24.4753C13.4051 24.5496 13.5842 24.5496 13.7328 24.4753L14.8685 23.9075C15.0644 23.8095 15.1805 23.6014 15.1605 23.3832L14.6027 17.2478L15.0141 16.0138H16.3339C16.6093 16.0138 16.8733 16.0767 17.1183 16.201C17.7072 16.4994 18.073 17.094 18.073 17.7528L18.073 25.1704ZM24.2022 32.4815H24.3657L24.8566 37.8818L24.284 38.1681L23.7113 37.8818L24.2022 32.4815ZM24.6811 30.7779L24.4681 31.4167H24.0998L23.8868 30.7779H24.6811ZM19.7056 39.9345V32.5169C19.7056 31.558 20.4857 30.7779 21.4447 30.7779H22.7645L23.1758 32.0119L22.6181 38.1473C22.5982 38.3655 22.7142 38.5736 22.9101 38.6716L24.0458 39.2394C24.1943 39.3137 24.3734 39.3137 24.522 39.2394L25.6576 38.6716C25.8536 38.5736 25.9696 38.3655 25.9496 38.1473L25.3919 32.0119L25.8033 30.7779H27.1231C28.0821 30.7779 28.8621 31.558 28.8621 32.5169V39.9344H19.7056V39.9345ZM34.5052 23.404L33.9326 23.1177L34.4235 17.7173H34.5869L35.0778 23.1176L34.5052 23.404ZM34.6894 16.6527H34.3211L34.1082 16.0139H34.9024L34.6894 16.6527Z" fill="#08120F"/>
</g>
<defs>
<clipPath id="clip0_63_1231">
<rect width="34" height="34" fill="white" transform="translate(7 7)"/>
</clipPath>
</defs>
</svg>
