<svg width="40" height="40" viewBox="0 0 40 40" fill="none" xmlns="http://www.w3.org/2000/svg">
<circle cx="20" cy="20" r="20" fill="#007AFF"/>
<path d="M27.2051 15.0572C26.6648 15.3226 26.0944 15.4884 25.4941 15.588C26.0944 15.1899 26.5747 14.5596 26.7848 13.7967C26.2145 14.1616 25.5842 14.4269 24.8938 14.5928C24.3535 13.9625 23.573 13.5645 22.7325 13.5645C21.1116 13.5645 19.7909 15.024 19.7909 16.8153C19.7909 17.0807 19.8209 17.3129 19.8809 17.5451C17.4495 17.4124 15.2583 16.1187 13.7874 14.1284C13.5473 14.626 13.3972 15.1567 13.3972 15.7538C13.3972 16.8817 13.9075 17.8769 14.718 18.474C14.2377 18.4408 13.7874 18.3081 13.3672 18.0759V18.1091C13.3672 19.7013 14.3878 21.0282 15.7385 21.3268C15.4984 21.3931 15.2283 21.4263 14.9581 21.4263C14.778 21.4263 14.5679 21.3931 14.3878 21.3599C14.778 22.6537 15.8586 23.6157 17.1494 23.6157C16.1288 24.4781 14.8681 25.0089 13.4873 25.0089C13.2471 25.0089 13.007 25.0089 12.7969 24.9757C14.1176 25.9045 15.6485 26.4353 17.3295 26.4353C22.7625 26.4353 25.7342 21.4595 25.7342 17.1471C25.7342 17.0144 25.7342 16.8485 25.7342 16.7158C26.3046 16.2846 26.8149 15.7207 27.2051 15.0572Z" fill="#091547"/>
</svg>
